# xmcd
#
# Track frame offsets:
#	183
#	14808
#	27258
#	40983
#	61158
#	76083
#	89883
#	109083
#	123558
#	144408
#	164733
#	191883
#	211233
#	224733
#	244608
#
# Disc length: 3585 seconds
#
# Revision: 0
# Processed by: cddbd v1.5.1PL0 Copyright (c) Steve Scherf et al.
# Submitted via: MusicWizard 7.1.1b
#
DISCID=e30dff0f
DTITLE=Various Artist - Lloyd Webber Plays Lloyd Webber
DYEAR=1990
DGENRE=Instrumental
TTITLE0=Julian Lloyd Webber - Variations 1-4
TTITLE1=Julian Lloyd Webber - The Phantom Of The Opera
TTITLE2=Julian Lloyd Webber - Love Changes Everything
TTITLE3=Julian Lloyd Webber - Memory
TTITLE4=Julian Lloyd Webber - I Dont Know How To Love Him
TTITLE5=Julian Lloyd Webber - Starlight Express
TTITLE6=Julian Lloyd Webber - Music Of The Night
TTITLE7=Julian Lloyd Webber - Buenos Aires
TTITLE8=Julian Lloyd Webber - Dont Cry For Me Argentina
TTITLE9=Julian Lloyd Webber - The First Man You Remember
TTITLE10=Julian Lloyd Webber - All I Ask Of You
TTITLE11=Julian Lloyd Webber - Tell Me On A Sunday
TTITLE12=Julian Lloyd Webber - Close Every Door
TTITLE13=Julian Lloyd Webber - John
TTITLE14=Julian Lloyd Webber - Pie Jesu
EXTD=YEAR: 1990 ID3G: 77
EXTT0=
EXTT1=
EXTT2=
EXTT3=
EXTT4=
EXTT5=
EXTT6=
EXTT7=
EXTT8=
EXTT9=
EXTT10=
EXTT11=
EXTT12=
EXTT13=
EXTT14=
PLAYORDER=
